<?xml version="1.0" encoding="utf-8"?>
<!-- Generator: Adobe Illustrator 15.0.0, SVG Export Plug-In . SVG Version: 6.00 Build 0)  -->
<!DOCTYPE svg PUBLIC "-//W3C//DTD SVG 1.1//EN" "http://www.w3.org/Graphics/SVG/1.1/DTD/svg11.dtd">
<svg version="1.1" id="Layer_1" xmlns="http://www.w3.org/2000/svg" xmlns:xlink="http://www.w3.org/1999/xlink" x="0px" y="0px"
	 width="660px" height="113px" viewBox="0 0 660 113" enable-background="new 0 0 660 113" xml:space="preserve">
<g>
	<path d="M333,14h0.5l5,5.5V22l-0.5,4v0.5h0.5c0-1.672,0.5-2.5,1.5-2.5l1,0.5V26l-1.5,5.5l4,17.5v5.5V57
		c0,9.328-5.173,15.5-15.5,18.5c-6.673,2.664-15.173,10.828-25.5,24.5c-3.672,2-6.172,3-7.5,3h-1.5c-4-1.336-6-4.5-6-9.5V93
		c0-5.336,3.828-13,11.5-23h-1c-7,5-18.336,15-34,30c-8.672,6-14.5,9-17.5,9H244c-3.672,0-6.672-2.672-9-8v-2.5
		c0-7.336,2.328-14.336,7-21V77c-5,0-13.172,7.328-24.5,22c-2.672,3.664-6,5.5-10,5.5c-3.336,0-5.336-3.672-6-11
		c0.664-6.672,3.328-13,8-19H209c-5,2.664-8,4-9,4h-0.5c-2.672,0-5.336-1.5-8-4.5h-1c-4.672,5-9.836,7.828-15.5,8.5
		c-21.672,4.664-44.336,7-68,7c-14.672,0-28.336-2.336-41-7c0,2.664-0.836,4.5-2.5,5.5H63c-3.336-1.672-6.336-4.836-9-9.5l-5-1
		c-7.336,0-16.672,8-28,24c-3.672,3.664-7.172,5.5-10.5,5.5C3.5,105.664,0,102.328,0,97h0.5L0,96l0.5-1H0v-0.5
		C0,90.828,2.5,85,7.5,77v-1c-4.672-3.672-7-8.172-7-13.5c0-10.336,4.328-22.836,13-37.5l1-0.5l1,1.5c-7.336,15.664-11,25-11,28v5
		c0,6,2.328,9,7,9H12c1,0,2.5-2.836,4.5-8.5H18c0,7-3.172,13.328-9.5,19c-4,8-6,13.828-6,17.5c0,2.328,1.164,4.164,3.5,5.5h4
		c3,0,9.164-6.336,18.5-19C37.164,74.164,44.328,70,50,70h1l4.5,1v-0.5c1-2,1.664-3,2-3c3.664,4.664,9,8,16,10
		c11.664,3.328,24.164,5,37.5,5c17,0,39.164-2.336,66.5-7c8-2.672,12-5.672,12-9l2-1.5l1,1v3l3.5,1h3.5c4.664,0,10-2.172,16-6.5
		c-4.336-1.336-7.5-2-9.5-2h-4.5L193,62l-1-1c0-5.336,3.328-8.5,10-9.5c2.328,0,9.664,2.164,22,6.5c13.328,2.328,20,3.664,20,4
		c0,1.328-1.172,3.164-3.5,5.5l-2-1c-14.672,0-23.672,3.664-27,11c-4.336,4.328-6.5,9.164-6.5,14.5c0.664,3.328,2.164,5,4.5,5
		c3.664,0,9.5-5.672,17.5-17c1.328-3,10-8.336,26-16l2.5-2.5c0-4.672-2-13.172-6-25.5c-3.672,2.664-5.836,4-6.5,4h-1v-0.5
		c0.328-1.336,2.664-3.172,7-5.5c-0.672-6-1.672-10.336-3-13c0.664-4.336,1.5-6.5,2.5-6.5l5,7.5l-0.5,5.5l2.5-3l1,0.5v2.5L254,34
		c3.328,13.328,5,20.828,5,22.5c0,8.328-3.5,14.328-10.5,18c-6.672,8.328-10,14.664-10,19V96c0,1.328,1.164,3,3.5,5h4.5l0.5,0.5
		c4.664,0,17.164-9.5,37.5-28.5c8.328-6.336,13.164-10.172,14.5-11.5l-12-8c-1-2.336-1.5-4.672-1.5-7V46c0-3.672,2.664-6.336,8-8
		h7.5c3.328,0,15.5,1.828,36.5,5.5V43c0-2.672-0.673-5.5-2-8.5l-5,1.5l-0.5-0.5V35c3-1.672,4.5-3.172,4.5-4.5l-3-11V17
		C331.5,15,332,14,333,14z M41,7h2c1.328,0.336,2,1.336,2,3v2.5l-1,1l-2.5-3c-1.672,1-2.672,4-3,9V22c2.664,2.664,4,4.164,4,4.5
		C42.164,28.164,41.664,29,41,29h-3c-3,0.328-4.5,1.164-4.5,2.5c2,7,3.328,13.328,4,19H38c6.328,0,9.5,1,9.5,3V54
		C44.828,60.664,41,64,36,64h-0.5c-1.336-0.336-2-0.672-2-1c4-2.672,6-4.336,6-5l-3-1h-2L30,58.5L29,58c0-1.672,2-4.336,6-8
		l-3.5-17.5c0-6,1.164-9.5,3.5-10.5h0.5c-0.672-4.672-2.336-7-5-7c-2,0-3.336-0.836-4-2.5C26.828,10.172,27.328,9,28,9h3l6.5,6
		C37.5,12.336,38.664,9.672,41,7z M56.5,89.5l1,1.5c0,2.664-7,6.828-21,12.5l-2,0.5l-0.5-0.5V103C34,101,41.5,96.5,56.5,89.5z
		 M89.5,31.5H97c6,0,10.664,1.828,14,5.5h2.5l1.5-0.5V36c0-0.672-0.836-1-2.5-1v-1l1-0.5h0.5l1.5,0.5h1
		c0.328-1.672,0.828-2.5,1.5-2.5c1,0.664,1.5,1.664,1.5,3c1.664-1.336,3-2,4-2l1,1.5c0,0.664-1,1-3,1v2h1c2,0,4.328-1.172,7-3.5
		c2.664-1.336,5.164-2,7.5-2h7.5c7,0,11.664,1.164,14,3.5c0,1,1.328,2,4,3c3.664,2,5.5,3.328,5.5,4v1c0,3-2.672,5.164-8,6.5
		c-3.336,4.664-9,7-17,7c-9,0-15.336-2.5-19-7.5h-1.5l-1.5,1.5v2c2.328,0,3.5,0.328,3.5,1c0,0.664-0.672,1-2,1l-3.5-2l1.5-5l-3.5-2
		l-2,3l4,6V55l-1,1c-0.672,0-1.336-1-2-3l-3.5,1.5L112,54v-1.5c0-0.672,0.664-1,2-1h1v-1l-1.5-2c-1.672,0-3.836,1.828-6.5,5.5
		c-4.672,1.328-8.172,2-10.5,2H89c-6.336,0-10.836-2.172-13.5-6.5c-3.336-0.672-5.672-2.172-7-4.5v-3.5
		c0.664-1.336,3.5-3.172,8.5-5.5C80,33,84.164,31.5,89.5,31.5z M71,40.5l-1,3c0.328,1.328,1,2.328,2,3h1l0.5-0.5H74
		c0.328,1,0.828,1.5,1.5,1.5H76c0.664,0,1.164-1,1.5-3H77l-1-1L73.5,44h-1l-1-1c0-0.672,0.5-1,1.5-1l2.5,0.5l-2.5-2H71z M75,39v1
		l2,1.5v-1L75.5,39H75z M78.5,39.5l3,2.5h2c0-1,0.328-1.5,1-1.5l4.5,1h0.5V41c-0.672-2-3.836-3-9.5-3L78.5,39.5z M78.5,47v1.5H83
		c4.328-0.336,6.5-1.172,6.5-2.5v-0.5H88L83.5,47l0.5-2.5h-1.5C80.828,44.5,79.5,45.328,78.5,47z M93.5,46.5l-1,0.5v0.5
		c1.328,0,2.164,1.664,2.5,5L93.5,53l-1-0.5v-4H91l-12,2v1c1.664,1.664,4.828,2.5,9.5,2.5h4v0.5l1-0.5H96c6.328,0,10-1.172,11-3.5
		V50h-2C101.664,50,97.828,48.828,93.5,46.5z M79.5,36v0.5H80c5.664,0,10.164,1.328,13.5,4c1-0.336,1.828-1.172,2.5-2.5h-1.5v2h-2
		v-5l1-0.5c1,0,1.5,0.828,1.5,2.5l1.5-1H97v0.5L96,38h0.5l11-2v-1c-3.672-1.672-7.5-2.5-11.5-2.5h-5
		C83.328,33.5,79.5,34.664,79.5,36z M88,43.5V44h2l1-1v-0.5h-2L88,43.5z M90,49h1v0.5l-1,1h-1V50L90,49z M96,43.5h2l-1-1L96,43.5z
		 M97,40.5v1l5.5-1.5v0.5V41l-1,1h1h2c2.328-1,3.5-1.836,3.5-2.5V38h-2.5h-1C103.164,38,100.664,38.828,97,40.5z M102.5,45v1.5
		L97,45v1c0,1,1.828,1.828,5.5,2.5h5.5c0-1.672-1.336-3.172-4-4.5L102.5,45z M110,38c-0.336,2.328-0.836,3.5-1.5,3.5l0.5,2v1
		l-0.5,0.5v0.5c0.664,0,1,0.5,1,1.5l0.5,0.5h1V46l2.5,0.5h0.5c1,0,1.828-1.5,2.5-4.5l-3-2l-1.5,1C111.328,39,110.664,38,110,38z
		 M113.5,42l0.5,1l-0.5,1l-1-1L113.5,42z M115,38l2.5,3h0.5c1.664-0.672,2.5-2,2.5-4c-1.336-1.672-2.172-2.5-2.5-2.5
		C116,35.828,115,37,115,38z M124,41l-2.5-0.5H121l-1.5,2c0.664,2.664,1.328,4,2,4h1l1.5-1l0.5,0.5l-0.5,0.5v1h0.5l3-2.5l-2-2.5
		l1.5-1c-1-1.336-1.836-2.172-2.5-2.5C124.164,39,124,39.664,124,41z M123.5,42.5l1,1L124,44h-1.5l-1-1l0.5-0.5H123.5z M128,39
		c0.328,1.328,1.5,2.328,3.5,3h1v-0.5V41c0-0.672,0.5-1,1.5-1l3.5,1.5h1V40c-3-1.336-6.336-2-10-2L128,39z M128,47.5v1h4.5
		c1.664,0,3.664-0.5,6-1.5v-1.5H138l-4.5,1.5v-1l0.5-0.5V45l-0.5-0.5h-2C129.164,44.5,128,45.5,128,47.5z M142,46l-0.5,0.5V47
		c0,0.328,0.5,0.5,1.5,0.5l0.5,1v4l-1,0.5c-0.672,0-1-1.336-1-4l-3,2.5l-0.5-1V50l1.5-1v-0.5h-1l-5,1.5H130l-1,1.5
		c3.328,2,7.164,3,11.5,3c10.328,0,15.5-1,15.5-3V50h-3.5l-6.5-1.5l0.5,0.5v1H146c-1,0-1.5-1-1.5-3L142,46z M129.5,35.5v1h4
		c1,0,3.664,1,8,3V35l1-0.5l1,0.5v2h1v1c0,0.664-0.336,1-1,1v1c2.664-2,6.828-3.336,12.5-4c0-1.672-3.836-2.836-11.5-3.5h-3
		C135.5,32.5,131.5,33.5,129.5,35.5z M137,43l1,1h1.5l1-1l-0.5-0.5h-0.5L137,43z M145,42.5l-0.5,0.5v0.5L145,44h2.5l1-1L145,42.5z
		 M146,41l2.5,1c0-1,0.828-1.5,2.5-1.5h0.5c0,1,0.328,1.5,1,1.5c2,0,3.664-1.336,5-4h-6C147.828,39.328,146,40.328,146,41z
		 M151.5,44.5L152,47h-0.5l-4-2l-1,0.5V46c1.328,1.664,4,2.5,8,2.5h1.5l1-1c0-1.336-1.336-2.5-4-3.5L151.5,44.5z M160,38l-1.5,3v0.5
		c1,0,1.5,0.164,1.5,0.5l-3,1.5V44l4,3.5c0-0.672,0.828-1,2.5-1c0-0.672,0.5-1,1.5-1l1-2c0-2-1.672-3-5-3L160,38z M162.5,42.5l1,1
		L163,44h-1l-1-1l1-0.5H162.5z M183.5,90.5h0.5c4.328,1,6.5,2.328,6.5,4c0,1.328-1,2.828-3,4.5H187l-5.5-1.5h-1c0,1-1,2.164-3,3.5
		h-1c-1.672,0-3.5-1-5.5-3c1.664-4,2.828-6,3.5-6l7,2.5C181.5,93.164,182.164,91.828,183.5,90.5z M240.5,24.5h0.5V25
		c0,3.664-11,9.164-33,16.5l-0.5-0.5v-1C210.5,36,221.5,30.828,240.5,24.5z M230.5,9c1,1.672,1.5,3.5,1.5,5.5V15l-1,1.5l-2-2h-0.5
		c-1.672,0-2.5,2.5-2.5,7.5v4l-1,1.5l-2-1v1l-0.5,1c-1,0-1.5-1.336-1.5-4l-2-3.5h-2l-3,1c-1.336-2.336-2-4-2-5
		c0.664-1.672,1.328-2.5,2-2.5h0.5c3.328,0,6.164,2.828,8.5,8.5h1C224.664,13.664,226.828,9,230.5,9z M236.5,39.5l1,1v1
		c0,4-2.172,6-6.5,6l-2,1h-1l-1.5-1.5v-2.5c0.328-2.336,1-3.5,2-3.5l0.5,1v2.5h1.5L231,44c0.664-2.336,1.328-3.5,2-3.5
		c0.664,0,1,0.828,1,2.5c0.664,0,1.328-1.172,2-3.5H236.5z M253,81.5c3.328,1,5,2,5,3c0,2.664-1,4.664-3,6h-2.5
		c-2-1-3.336-2.172-4-3.5C249.828,83.328,251.328,81.5,253,81.5z M266,0l2,1.5v2c0,3.672-3.336,6.5-10,8.5l-0.5,0.5v3h-1
		c-2-3.328-4-5.828-6-7.5V6l1-1.5l4,2.5h2.5l5.5-6L266,0z M263,4l-1,3c1.664,0,2.828-1,3.5-3H263z M266.5,13.5l4,4.5
		c1,0,1.5,0.828,1.5,2.5l-1.5,8h1c0.328-2.672,0.828-4,1.5-4h1l1,0.5v1l-3,8l6,28c0,11.664-4.5,18.5-13.5,20.5V81
		c6.328-6.336,9.5-10.672,9.5-13v-1.5c0-4.672-2-15-6-31l-6,2.5v-1c1.328-1.336,3-2.5,5-3.5l-2.5-15V18
		C265.164,15,265.828,13.5,266.5,13.5z M282.5,99l0.5,2c-2.672,4-8.5,7.664-17.5,11l-1-1C271.5,104.328,277.5,100.328,282.5,99z
		 M278,5h1c7.328,5.336,11,11,11,17l1.5,0.5c5.328-3,17.827-8,37.5-15h1l0.5,1c-1,2.336-9.337,6-25,11l-25.5,12h-0.5v-1
		c0-1.336,2.664-3.5,8-6.5l1-0.5v-1c0-3.336-3.672-8.336-11-15V6L278,5z M290,45.5c0,2.664,4.164,5.664,12.5,9
		c1.664,1.664,2.828,2.5,3.5,2.5l16.5-8v-0.5C307.827,46.164,298.328,45,294,45L290,45.5z M338,46.5c0,3.328-4.5,6.164-13.5,8.5
		l-12,6c2.327,4.664,3.5,7.828,3.5,9.5c-0.673,1.328-1.337,2.164-2,2.5h-0.5c-2,0-4.837-1.672-8.5-5c-9,8-13.5,15.5-13.5,22.5
		c0,3,1.164,4.5,3.5,4.5c5,0,11.164-5.836,18.5-17.5c5-4.672,12.827-9.172,23.5-13.5l4-3.5v-1v-4c-1-6-1.837-9-2.5-9H338z M303.5,0
		h3.5c3.327,0.336,5,1.172,5,2.5c-2,5.672-5.337,8.5-10,8.5l-1.5,1c0-2,1.664-3.664,5-5L302,5.5L297,7V6V5.5
		C297,3.172,299.164,1.336,303.5,0z M323.5,24.5h0.5v3c0,2-2,3.328-6,4l-2.5,2c-1.337-0.672-2.173-1.336-2.5-2V29
		c0-1.336,0.663-2.172,2-2.5h0.5c0,1.664,0.327,2.5,1,2.5h0.5c0.327,0,0.827-1.336,1.5-4h1c0.663,0,1,0.828,1,2.5h0.5l2-3H323.5z
		 M351.5,0.5c1,0.336,1.5,1.336,1.5,3c0,3.672-3,6.5-9,8.5c-0.337,2.664-0.673,4-1,4c-0.337,0-1.337-1.672-3-5c-2.673-2-4-3.328-4-4
		c0.327-1.664,1-2.5,2-2.5l4,3h1.5c0.663,0,2.5-2.164,5.5-6.5L351.5,0.5z M352.5,12.5l4.5,8l-1,6h1c0.327-2.336,1-3.5,2-3.5l1,1.5
		V26c0,1.328-0.837,3.5-2.5,6.5L360,55c0,4.328-1,9.828-3,16.5V73c0,3.664,1.827,6.828,5.5,9.5c3.663,0,6-5.5,7-16.5
		c3.327-9,6.5-13.5,9.5-13.5c0.663,0,1,0.5,1,1.5c-2.337,8-3.5,12.828-3.5,14.5c0,5.664,2.327,9,7,10h2.5
		c8.327-1.672,12.5-5.836,12.5-12.5L395,47.5v-2l1.5-1.5c2.663,3.328,5.327,11.664,8,25c2.327,5.328,5.5,8,9.5,8
		c4.663-0.336,7.163-1.172,7.5-2.5V74c0-1.672-1.837-5.672-5.5-12h-1c-1,0-2.337,0.664-4,2h-1v-1l3.5-3.5L409,47v-0.5
		c0-3.336,0.5-5,1.5-5h0.5c1,3,2.663,4.5,5,4.5l1,1l-0.5,6.5V54h0.5c0.663-3,1.5-4.5,2.5-4.5l1,2c0,3.328-0.337,5.5-1,6.5
		c3.663,7,5.5,12.328,5.5,16c-1,7-4.337,10.5-10,10.5l-2.5-0.5c-4.337,5.328-6.5,10.328-6.5,15v2.5c0,2.328,1.163,4.328,3.5,6h0.5
		c4.327,0,11.163-6.336,20.5-19c11.327-9.336,19.5-14,24.5-14h6.5l1-3.5h1c3.327,4.328,8.827,7.664,16.5,10c19.663,4,34.327,6,44,6
		l3-0.5l17,0.5c48.327-2.672,72.5-6,72.5-10h1.5v5.5l7,1.5c6.663,0,10-2.172,10-6.5l2-1c0.663,0,1.163,1.164,1.5,3.5
		c1,0.664,2.663,1,5,1h1.5c0.663-3.672,1.5-5.5,2.5-5.5c0.327,0,0.663,1.5,1,4.5l3,1h3.5l2.5-1c0-2.672-2.173-7.336-6.5-14l-5.5,2
		H645v-0.5c2.327-2.336,3.827-3.5,4.5-3.5L646,51.5c0.327-4.672,1-7,2-7c1,2.664,2.827,4.664,5.5,6l0.5,1l-1,5.5v1.5h1
		c1-3,1.827-4.5,2.5-4.5l1.5,1v2l-2.5,5.5c3,6.664,4.5,11.328,4.5,14v6c0,2.664-1.173,4-3.5,4H654c-1.673,0-3.337-0.672-5-2h-1.5
		c-2.337,2.664-4.173,4-5.5,4l-7.5-1.5c-2.337,2.664-4.673,4-7,4H622c-5.337,0-8-1.836-8-5.5h-0.5c-18.337,4.328-34,6.5-47,6.5
		c-9.673,2-22.5,3-38.5,3c-27.673-2-44.5-4.672-50.5-8l-4.5-1.5v1c-0.337,4.328-1.337,6.5-3,6.5c-3.337-1.336-6.337-4.336-9-9
		c-0.337-1-1.673-1.5-4-1.5h-1.5c-8,0-18.337,7.664-31,23c-5,5-8.837,7.5-11.5,7.5h-2c-4.337,0-7.173-3.836-8.5-11.5
		c0-4.672,2.163-10.672,6.5-18V83c-3-2.336-5.837-6-8.5-11c0,5-3.837,9.5-11.5,13.5h-2.5h-1c-6.337,0-10.337-3.336-12-10v-7L375,61
		v-0.5h-0.5c-1.337,3-3.173,9.828-5.5,20.5c-1.673,3-3.173,4.828-4.5,5.5H360c-2-0.672-4-4.336-6-11h-0.5c-6,3.664-9.5,5.5-10.5,5.5
		h-0.5L355,66.5c1.663-3.672,2.5-6.836,2.5-9.5c-1.337-13.336-2.837-20.672-4.5-22c-1.673,1-3,1.5-4,1.5V36v-0.5l4-3L349.5,17
		C350.5,14,351.5,12.5,352.5,12.5z M348,7h1h0.5V4.5C349.163,4.836,348.663,5.672,348,7z M386.5,92l0.5,1c0,3-8.173,6.664-24.5,11
		v-0.5V103c0-2,7.663-5.672,23-11H386.5z M369.5,7.5c8.663,4,13,9.828,13,17.5h0.5c16-7.672,28-13,36-16h0.5v1
		c0,1.336-10.5,6.828-31.5,16.5c-11.673,6-17.837,9-18.5,9v-1c0-1.336,3.663-4,11-8h0.5v-3c0-2.672-4-7.5-12-14.5V8.5L369.5,7.5z
		 M390,32.5h0.5c0.663,0,1.163,1,1.5,3V36l-1,1l-1.5-1H389l-1,1v2l0.5,9.5L387,49l-0.5-0.5H386l-1.5,0.5v-0.5
		c-1-1-1.673-3.172-2-6.5H379h-1l-2-1.5V38l2-1.5h1c2.663,0,4.827,2.664,6.5,8h0.5v-4C386,35.164,387.327,32.5,390,32.5z M395,2v1.5
		c-2,3.672-3,5.836-3,6.5v2l1,0.5h2c0-1.328,0.327-2,1-2l0.5,0.5v2.5c-1,2-2.5,3-4.5,3l-2.5-2v-2C389.5,9.5,391.327,6,395,2z
		 M412.5,25l1,1.5v2c0,3.328-3.5,5.328-10.5,6l-0.5-1v-1c0-3.336,0.327-5,1-5c0.663,0,1,0.828,1,2.5h1.5l0.5-1c0.663,0,1-0.5,1-1.5
		l0.5-1c0.663,0,1,0.828,1,2.5c1.327,0,2-1,2-3l1-1H412.5z M438.5,0h1.5l1,1.5V2c0,4.336-2.837,7-8.5,8h-3v1c3,4,4.5,6.328,4.5,7
		l-1,8l3.5-4l0.5,0.5v2l-3,8c3.663,13.664,5.5,24,5.5,31V65c0,10.328-4.337,17.164-13,20.5H426h-0.5V85
		c7.327-7.672,11-13.172,11-16.5V64c0-4-2.173-14-6.5-30h-1l-2.5,0.5L426,34c1-1,2-2.336,3-4v-1.5L427,17l0.5-4.5
		c-2-1.664-3.5-3.5-4.5-5.5V5l0.5-1c2.327,2,4.327,3,6,3h3C433.827,2.336,435.827,0,438.5,0z M435.5,5.5h1.5l1-0.5V3.5h-1L435.5,5.5
		z M459.5,93l0.5,0.5V95c0,2.664-7.673,6.828-23,12.5l-0.5-2C449.827,97.164,457.5,93,459.5,93z M503.5,37
		c9.663,0,15.663,2.164,18,6.5L524,44h1v-2v-0.5c-1.673,0-2.5-0.336-2.5-1V40l1-1h0.5c1.327,1,2.327,1.5,3,1.5l1-3.5h1.5v2.5
		c-2.337,2.664-3.5,4.664-3.5,6c0.663,1,1.663,1.664,3,2c0-0.672,0.5-1,1.5-1V41c1.327-1.336,2.327-2,3-2l0.5,0.5V41
		c0,0.664-0.837,1-2.5,1v1l1.5,1.5c1.663,0,3.827-1.5,6.5-4.5c3-1.336,7.163-2.336,12.5-3c9.327,0,15.327,2.164,18,6.5
		c5,1.328,7.5,4,7.5,8c0,1.328-3,3.5-9,6.5c-2.337,3-7.173,4.5-14.5,4.5c-10.337,0-16.673-2.172-19-6.5l-2.5-0.5L532,56v2
		c1.327,0,2,0.164,2,0.5V59l-1,1.5h-1l-1.5-1.5H530c-0.337,2-1,3-2,3c-0.673,0-1-1-1-3h-0.5l-2.5,2h-0.5l-1.5-2l1-1h2v-2.5
		c-2.337,0-5.173,1.664-8.5,5c-2.673,1-6.337,1.664-11,2c-10,0-16.673-2.336-20-7c-2,0-4.337-1.336-7-4v-1
		c0-2.672,2.663-5.172,8-7.5C489.5,39,495.163,37,503.5,37z M484,47l-1-0.5c-1.337,1.328-2,2.5-2,3.5c0,1.664,0.827,2.664,2.5,3
		l2-0.5l0.5,2l1.5-2v-1l0.5-3c-0.337-2-0.837-3-1.5-3L484,47z M483.5,49l2,0.5V50l-1,1.5H484l-0.5-1.5V49z M489,45.5V46
		c1,1.664,2.663,2.664,5,3c1,0,1.5-0.5,1.5-1.5h3h2c0-1.672-3.5-2.672-10.5-3L489,45.5z M489,54.5l1.5,0.5l9.5-1v-1l-1-0.5l-4.5,0.5
		v-0.5h0.5v-1h-0.5C490.827,51.828,489,52.828,489,54.5z M490,42c0,0.328,3.5,1.328,10.5,3l2-0.5V45
		c0.327,1.328,0.827,2.164,1.5,2.5l1-1.5v-0.5V45v-0.5l2-1v1l6.5-1.5h4v-0.5c-1.337-2.336-6.173-3.5-14.5-3.5h-1.5
		C496.5,39,492.663,40,490,42z M502.5,53c0,1.664-4.173,3-12.5,4v1c1.327,0.664,5.5,1.664,12.5,3c9-0.336,13.827-1.672,14.5-4
		c-4.337-0.672-8.173-1.5-11.5-2.5L506,55v0.5l-0.5,0.5H505v-0.5c0,2-0.337,3-1,3c-0.673,0-1.173-1.5-1.5-4.5c1,0,1.5-0.336,1.5-1
		H502.5z M498.5,49.5V50l2.5,0.5l1.5-1H498.5z M503,41h1l1,1.5l-1,3l-1-1V41z M506,49.5l1,1h0.5l0.5-1H506z M507,46.5V47l1,0.5h1
		l3.5-0.5h0.5c0,1.328,0.5,2,1.5,2c2-0.672,3.163-1.5,3.5-2.5V45h-1C512.663,45,509.327,45.5,507,46.5z M512.5,53l-3.5-0.5h-1
		l-1,0.5c2.327,1.328,5,2,8,2h3v-0.5c0-1.336-0.837-2.336-2.5-3h-2C512.827,51.5,512.5,52,512.5,53z M521,46l-2.5,3
		c1.663,0.328,2.5,0.828,2.5,1.5l-1.5,2.5c1,0,1.5,0.5,1.5,1.5h0.5L523,53l2,0.5l2-3V49c0-1-2-2.172-6-3.5V46z M524,49.5V50v0.5h-1
		L524,49.5z M527,52.5l-1,2.5v1l2,2c1.663-0.672,2.5-1.836,2.5-3.5C530.5,53.164,529.327,52.5,527,52.5z M530,49v1.5
		c0.663,2,1.5,3,2.5,3L535,53v0.5l-0.5,0.5v0.5h1l2-2l-1-1v-1c0-0.672,0.327-1,1-1c0-2.336-0.673-3.5-2-3.5
		C531.827,47,530,48,530,49z M533.5,49.5v2H533l-1-1.5l0.5-0.5H533.5z M538,46l4,3.5c1.327,0,2-0.672,2-2h1l3,1h1.5v-1
		c-1-1.672-3.5-2.5-7.5-2.5h-3L538,46z M538,54.5l2.5,0.5h3.5c2,0,3.827-0.672,5.5-2l-1-0.5H547l-2.5,1.5H544l-0.5-1l0.5-0.5v-1
		h-1.5C540.5,51.5,539,52.5,538,54.5z M539,43v0.5h4.5c1.327,0,3.327,0.664,6,2c0-1,0.327-1.5,1-1.5c0.663,0.664,1,1.828,1,3.5h0.5
		c4.663-2.672,8.5-4,11.5-4h3V43c0-2-4.173-3.336-12.5-4h-1C546,39.328,541.327,40.664,539,43z M552,53c-2.337,2.664-6.673,4-13,4
		c1,2.664,4.5,4,10.5,4h7.5l8.5-3v-1h-1C561.5,57,557.327,55.664,552,53z M547,50v1.5l1-1h2.5v-1H550L547,50z M552.5,54l1.5,0.5
		c0,3-0.5,4.5-1.5,4.5c-0.337,0-0.5-1.172-0.5-3.5l-1.5,1H550L552.5,54z M552.5,41l0.5,0.5h1c-0.673,3-1.337,4.5-2,4.5v-1.5V44v-0.5
		V42L552.5,41z M555,49.5v1h4v-1H555z M556,47.5v1h3c1-1,2-1.5,3-1.5l0.5,0.5H562V49h1v0.5c1,0,2.327-1,4-3V46l-1-1h-1.5
		C559.5,45,556.663,45.828,556,47.5z M561.5,53l-4-0.5H556V53c1,1.328,2.827,2,5.5,2h5.5c-0.337-2.336-1.673-3.5-4-3.5
		C562,51.5,561.5,52,561.5,53z M569.5,46c0,1-0.5,2-1.5,3v1c0,1.664,0.827,3.164,2.5,4.5h0.5l-0.5-0.5v-1.5h0.5l2.5,1
		c1.327-0.672,2-1.836,2-3.5c0-2.336-1.837-3.672-5.5-4H569.5z M573,49.5V50v0.5l-1,1v-1L573,49.5z M631.5,96h1v2
		c0,2.328-7.5,5.828-22.5,10.5v-1C610,105.5,617.163,101.664,631.5,96z M629.5,30h0.5c0.663,0,1.163,1.328,1.5,4
		c0,1.664-0.337,2.5-1,2.5h-1l-1.5-1c-1.337,0-2.673,3.828-4,11.5h-1l-0.5-0.5H622c0,0.664-0.337,1-1,1l-2-7
		c-4.337-1.672-6.5-3.336-6.5-5c0.663-2,1.5-3,2.5-3c4.327,0,6.663,4.328,7,13h0.5C624.163,35.164,626.5,30,629.5,30z M620.5,53
		c6.663,0.664,10,1.828,10,3.5c0,3.664-3.173,6.828-9.5,9.5l-4.5,1.5l-0.5-1V66c4-2.672,6-4.5,6-5.5l-5-1l-3.5,1l-1-1V59
		c0-3,2.5-5,7.5-6H620.5z M649.5,96c3.327,1.328,5,2.328,5,3v1c-1,3.664-2.173,5.5-3.5,5.5c-2-1-3.673-2.336-5-4
		C647.327,97.828,648.5,96,649.5,96z"/>
</g>
</svg>
